<svg width="77" height="32" viewBox="0 0 77 32" fill="none" xmlns="http://www.w3.org/2000/svg">
<g clip-path="url(#clip0_21_40)">
<rect width="77" height="32" rx="10" fill="#FC2020"/>
<g filter="url(#filter0_d_21_40)">
<path d="M10.446 24.5L5.4517 7.04545H9.48295L12.3722 19.1733H12.517L15.7045 7.04545H19.1562L22.3352 19.1989H22.4886L25.3778 7.04545H29.4091L24.4148 24.5H20.8182L17.4943 13.0881H17.358L14.0426 24.5H10.446ZM35.8757 24.7557C34.5291 24.7557 33.37 24.483 32.3984 23.9375C31.4325 23.3864 30.6882 22.608 30.1655 21.6023C29.6428 20.5909 29.3814 19.3949 29.3814 18.0142C29.3814 16.6676 29.6428 15.4858 30.1655 14.4688C30.6882 13.4517 31.424 12.6591 32.3729 12.0909C33.3274 11.5227 34.4467 11.2386 35.7308 11.2386C36.5945 11.2386 37.3984 11.3778 38.1428 11.6562C38.8928 11.929 39.5462 12.3409 40.103 12.892C40.6655 13.4432 41.103 14.1364 41.4155 14.9716C41.728 15.8011 41.8842 16.7727 41.8842 17.8864V18.8835H30.8303V16.6335H38.4666C38.4666 16.1108 38.353 15.6477 38.1257 15.2443C37.8984 14.8409 37.5831 14.5256 37.1797 14.2983C36.782 14.0653 36.3189 13.9489 35.7905 13.9489C35.2393 13.9489 34.7507 14.0767 34.3246 14.3324C33.9041 14.5824 33.5746 14.9205 33.3359 15.3466C33.0973 15.767 32.9751 16.2358 32.9695 16.7528V18.892C32.9695 19.5398 33.0888 20.0994 33.3274 20.571C33.5717 21.0426 33.9155 21.4062 34.3587 21.6619C34.8018 21.9176 35.3274 22.0455 35.9354 22.0455C36.3388 22.0455 36.7081 21.9886 37.0433 21.875C37.3786 21.7614 37.6655 21.5909 37.9041 21.3636C38.1428 21.1364 38.3246 20.858 38.4496 20.5284L41.8075 20.75C41.6371 21.5568 41.2876 22.2614 40.7592 22.8636C40.2365 23.4602 39.5604 23.9261 38.7308 24.2614C37.907 24.5909 36.9553 24.7557 35.8757 24.7557ZM44.3217 24.5V7.04545H47.9524V13.608H48.0632C48.2223 13.2557 48.4524 12.8977 48.7536 12.5341C49.0604 12.1648 49.4581 11.858 49.9467 11.6136C50.4411 11.3636 51.0547 11.2386 51.7876 11.2386C52.7422 11.2386 53.6229 11.4886 54.4297 11.9886C55.2365 12.483 55.8814 13.2301 56.3643 14.2301C56.8473 15.2244 57.0888 16.4716 57.0888 17.9716C57.0888 19.4318 56.853 20.6648 56.3814 21.6705C55.9155 22.6705 55.2791 23.429 54.4723 23.946C53.6712 24.4574 52.7734 24.7131 51.7791 24.7131C51.0746 24.7131 50.4751 24.5966 49.9808 24.3636C49.4922 24.1307 49.0916 23.8381 48.7791 23.4858C48.4666 23.1278 48.228 22.767 48.0632 22.4034H47.9013V24.5H44.3217ZM47.8757 17.9545C47.8757 18.733 47.9837 19.4119 48.1996 19.9915C48.4155 20.571 48.728 21.0227 49.1371 21.3466C49.5462 21.6648 50.0433 21.8239 50.6286 21.8239C51.2195 21.8239 51.7195 21.6619 52.1286 21.3381C52.5376 21.0085 52.8473 20.554 53.0575 19.9744C53.2734 19.3892 53.3814 18.7159 53.3814 17.9545C53.3814 17.1989 53.2763 16.5341 53.0661 15.9602C52.8558 15.3864 52.5462 14.9375 52.1371 14.6136C51.728 14.2898 51.2251 14.1278 50.6286 14.1278C50.0376 14.1278 49.5376 14.2841 49.1286 14.5966C48.7251 14.9091 48.4155 15.3523 48.1996 15.9261C47.9837 16.5 47.8757 17.1761 47.8757 17.9545ZM70.4034 15.142L67.0795 15.3466C67.0227 15.0625 66.9006 14.8068 66.7131 14.5795C66.5256 14.3466 66.2784 14.1619 65.9716 14.0256C65.6705 13.8835 65.3097 13.8125 64.8892 13.8125C64.3267 13.8125 63.8523 13.9318 63.4659 14.1705C63.0795 14.4034 62.8864 14.7159 62.8864 15.108C62.8864 15.4205 63.0114 15.6847 63.2614 15.9006C63.5114 16.1165 63.9403 16.2898 64.5483 16.4205L66.9176 16.8977C68.1903 17.1591 69.1392 17.5795 69.7642 18.1591C70.3892 18.7386 70.7017 19.5 70.7017 20.4432C70.7017 21.3011 70.4489 22.054 69.9432 22.7017C69.4432 23.3494 68.7557 23.8551 67.8807 24.2188C67.0114 24.5767 66.0085 24.7557 64.8722 24.7557C63.1392 24.7557 61.7585 24.3949 60.7301 23.6733C59.7074 22.946 59.108 21.9574 58.9318 20.7074L62.5028 20.5199C62.6108 21.0483 62.8722 21.4517 63.2869 21.7301C63.7017 22.0028 64.233 22.1392 64.8807 22.1392C65.517 22.1392 66.0284 22.017 66.4148 21.7727C66.8068 21.5227 67.0057 21.2017 67.0114 20.8097C67.0057 20.4801 66.8665 20.2102 66.5938 20C66.321 19.7841 65.9006 19.6193 65.3324 19.5057L63.0653 19.054C61.7869 18.7983 60.8352 18.3551 60.2102 17.7244C59.5909 17.0937 59.2812 16.2898 59.2812 15.3125C59.2812 14.4716 59.5085 13.7472 59.9631 13.1392C60.4233 12.5312 61.0682 12.0625 61.8977 11.733C62.733 11.4034 63.7102 11.2386 64.8295 11.2386C66.483 11.2386 67.7841 11.5881 68.733 12.2869C69.6875 12.9858 70.2443 13.9375 70.4034 15.142Z" fill="white"/>
</g>
</g>
<defs>
<filter id="filter0_d_21_40" x="4.45171" y="6.04546" width="73.25" height="25.7102" filterUnits="userSpaceOnUse" color-interpolation-filters="sRGB">
<feFlood flood-opacity="0" result="BackgroundImageFix"/>
<feColorMatrix in="SourceAlpha" type="matrix" values="0 0 0 0 0 0 0 0 0 0 0 0 0 0 0 0 0 0 127 0" result="hardAlpha"/>
<feOffset dx="3" dy="3"/>
<feGaussianBlur stdDeviation="2"/>
<feComposite in2="hardAlpha" operator="out"/>
<feColorMatrix type="matrix" values="0 0 0 0 0 0 0 0 0 0 0 0 0 0 0 0 0 0 0.25 0"/>
<feBlend mode="normal" in2="BackgroundImageFix" result="effect1_dropShadow_21_40"/>
<feBlend mode="normal" in="SourceGraphic" in2="effect1_dropShadow_21_40" result="shape"/>
</filter>
<clipPath id="clip0_21_40">
<rect width="77" height="32" rx="10" fill="white"/>
</clipPath>
</defs>
</svg>
