<?xml version="1.0" standalone="no"?><!DOCTYPE svg PUBLIC "-//W3C//DTD SVG 1.1//EN" "http://www.w3.org/Graphics/SVG/1.1/DTD/svg11.dtd"><svg t="1717723174716" class="icon" viewBox="0 0 1024 1024" version="1.1" xmlns="http://www.w3.org/2000/svg" p-id="4920" width="32" height="32" xmlns:xlink="http://www.w3.org/1999/xlink"><path d="M362.474667 128.375467h303.317333a123.349333 123.349333 0 0 1 106.824533 61.696l151.658667 262.749866a123.400533 123.400533 0 0 1 0 123.370667l-151.658667 262.7584a123.349333 123.349333 0 0 1-106.824533 61.691733h-303.317333a123.349333 123.349333 0 0 1-106.824534-61.696l-151.658666-262.754133a123.400533 123.400533 0 0 1 0-123.370667l151.658666-262.754133a123.349333 123.349333 0 0 1 106.824534-61.696z m0 64a59.349333 59.349333 0 0 0-51.396267 29.6832L159.419733 484.821333a59.400533 59.400533 0 0 0 0 59.383467L311.082667 806.954667a59.349333 59.349333 0 0 0 51.396266 29.687466h303.317334a59.349333 59.349333 0 0 0 51.396266-29.687466l151.658667-262.754134a59.400533 59.400533 0 0 0 0-59.383466L717.184 222.058667a59.349333 59.349333 0 0 0-51.396267-29.6832h-303.317333zM512 661.333333c-82.474667 0-149.333333-66.858667-149.333333-149.333333s66.858667-149.333333 149.333333-149.333333 149.333333 66.858667 149.333333 149.333333-66.858667 149.333333-149.333333 149.333333z m0-64c47.1296 0 85.333333-38.203733 85.333333-85.333333s-38.203733-85.333333-85.333333-85.333333-85.333333 38.203733-85.333333 85.333333 38.203733 85.333333 85.333333 85.333333z" fill="#78716C" p-id="4921"></path></svg>